<?xml version="1.0" encoding="utf-8"?>
<!-- Generator: Adobe Illustrator 20.1.0, SVG Export Plug-In . SVG Version: 6.00 Build 0)  -->
<svg version="1.1" id="Layer_1" xmlns="http://www.w3.org/2000/svg" xmlns:xlink="http://www.w3.org/1999/xlink" x="0px" y="0px"
	 viewBox="0 0 559.9 537.3" style="enable-background:new 0 0 559.9 537.3;" xml:space="preserve">
<style type="text/css">
	.st0{fill:#FFFFFF;}
</style>
<polygon class="st0" points="43.5,19 76.8,53 87,43.5 43.5,0 0,43.5 10.2,53 "/>
<g>
	<path class="st0" d="M559.9,537.3c-70.7,0-139.3-13.8-203.9-41.2c-62.4-26.4-118.4-64.1-166.5-112.2
		c-48.1-48.1-85.9-104.1-112.2-166.5C50,152.9,36.1,84.3,36.1,13.6h14c0,68.8,13.5,135.6,40.1,198.4c25.7,60.7,62.4,115.2,109.2,162
		s101.3,83.6,162,109.2c62.8,26.6,129.6,40.1,198.4,40.1V537.3z"/>
</g>
</svg>
