<?xml version="1.0" encoding="utf-8"?>
<!-- Generator: Adobe Illustrator 20.1.0, SVG Export Plug-In . SVG Version: 6.00 Build 0)  -->
<svg version="1.1" id="Layer_1" xmlns="http://www.w3.org/2000/svg" xmlns:xlink="http://www.w3.org/1999/xlink" x="0px" y="0px"
	 viewBox="0 0 28 24.8" style="enable-background:new 0 0 28 24.8;" xml:space="preserve">
<path d="M24.9,5.8v0.7c0,7.5-5.7,16.2-16.2,16.2c-3.1,0-6.1-0.9-8.7-2.6c0.5,0.1,0.9,0.1,1.4,0.1c2.6,0,5.1-0.8,7.1-2.4
	c-2.5,0-4.6-1.6-5.3-4c0.4,0.1,0.7,0.1,1.1,0.1c0.5,0,1-0.1,1.5-0.2c-2.7-0.5-4.6-2.9-4.6-5.6V8C2,8.4,2.9,8.7,3.8,8.7
	C2.2,7.6,1.3,5.9,1.3,4c0-1,0.3-2,0.8-2.9C5,4.6,9.2,6.8,13.8,7c-0.1-0.4-0.1-0.9-0.1-1.3c0-3.1,2.6-5.7,5.7-5.7
	c1.6,0,3.1,0.7,4.2,1.8c1.3-0.3,2.5-0.7,3.6-1.4c-0.4,1.3-1.3,2.5-2.5,3.2C25.8,3.5,27,3.2,28,2.7C27.1,3.9,26.1,4.9,24.9,5.8z"/>
</svg>
