<?xml version="1.0" encoding="utf-8"?>
<!-- Generator: Adobe Illustrator 20.1.0, SVG Export Plug-In . SVG Version: 6.00 Build 0)  -->
<svg version="1.1" id="Layer_1" xmlns="http://www.w3.org/2000/svg" xmlns:xlink="http://www.w3.org/1999/xlink" x="0px" y="0px"
	 viewBox="0 0 559.9 537.3" style="enable-background:new 0 0 559.9 537.3;" xml:space="preserve">
<style type="text/css">
	.st0{fill:#000222;}
</style>
<polygon class="st0" points="10.2,484.3 0,493.8 43.5,537.3 87,493.8 76.8,484.3 43.5,518.3 "/>
<g>
	<path class="st0" d="M559.8,0v14C491,14,424.2,27.5,361.4,54.1c-60.7,25.6-115.2,62.4-162,109.2s-83.5,101.3-109.2,162
		c-26.6,62.8-40.1,129.6-40.1,198.4h-14c0-70.7,13.9-139.3,41.2-203.8c26.3-62.4,64.1-118.4,112.2-166.5S293.6,67.6,356,41.2
		C420.6,13.8,489.2,0,559.9,0H559.8z"/>
</g>
</svg>
