<svg xmlns="http://www.w3.org/2000/svg" viewBox="0 0 800 800"><defs><style>.a{fill:#222;}.b{fill:#e20707;}.c{fill:#1440ad;}</style></defs><title>flag</title><rect class="a" x="580" y="130" width="40" height="140" transform="translate(34.3 482.8) rotate(-45)"/><rect class="a" x="144.6" y="565.4" width="40" height="140" transform="translate(-401 302.5) rotate(-45)"/><rect class="a" x="215.4" y="494.6" width="40" height="140" transform="translate(-330.3 331.8) rotate(-45)"/><rect class="a" x="571.2" y="505.6" width="40" height="65" transform="translate(553.7 -260.4) rotate(45)"/><rect class="a" x="606.5" y="541" width="40" height="65" transform="translate(589 -275) rotate(45)"/><rect class="a" x="641.9" y="576.3" width="40" height="65" transform="translate(624.4 -289.7) rotate(45)"/><rect class="a" x="518.1" y="558.7" width="40" height="65" transform="translate(575.6 -207.4) rotate(45)"/><rect class="a" x="553.5" y="594" width="40" height="65" transform="translate(611 -222) rotate(45)"/><rect class="a" x="588.8" y="629.4" width="40" height="65" transform="translate(646.3 -236.7) rotate(45)"/><circle class="b" cx="400" cy="400" r="140"/><path class="c" d="M540,400a140,140,0,0,1-280,0"/><rect class="a" x="144.6" y="94.6" width="40" height="140" transform="translate(164.6 -68.2) rotate(45)"/><rect class="a" x="180" y="130" width="40" height="140" transform="translate(200 -82.8) rotate(45)"/><rect class="a" x="215.4" y="165.4" width="40" height="140" transform="translate(235.4 -97.5) rotate(45)"/><rect class="a" x="153.5" y="541" width="40" height="65" transform="translate(-354.7 290.6) rotate(-45)"/><rect class="a" x="206.5" y="594" width="40" height="65" transform="translate(-376.7 343.7) rotate(-45)"/><rect class="a" x="588.8" y="105.6" width="40" height="65" transform="translate(80.7 471) rotate(-45)"/><rect class="a" x="641.9" y="158.7" width="40" height="65" transform="translate(58.7 524) rotate(-45)"/><rect class="a" x="518.1" y="176.3" width="40" height="65" transform="translate(9.9 441.7) rotate(-45)"/><rect class="a" x="571.2" y="229.4" width="40" height="65" transform="translate(-12 494.7) rotate(-45)"/></svg>