<svg xmlns="http://www.w3.org/2000/svg" viewBox="0 0 800 800"><defs><style>.a{fill:#002776;}.b{fill:#e20707;}.c{fill:#39c;}.d{fill:#fff;}</style></defs><title>flag</title><rect class="a" y="534" width="800" height="266" transform="translate(800 1334) rotate(180)"/><rect class="b" width="800" height="266" transform="translate(800 266) rotate(180)"/><rect class="b" x="280" y="220" width="240" height="360"/><rect class="c" x="280" y="161.6" width="240" height="38.38"/><rect class="d" x="340" y="220" width="60" height="60"/><rect class="d" x="460" y="220" width="60" height="60"/><rect class="d" x="280" y="280" width="60" height="60"/><rect class="d" x="400" y="280" width="60" height="60"/><rect class="d" x="340" y="340" width="60" height="60"/><rect class="d" x="460" y="340" width="60" height="60"/><rect class="d" x="280" y="400" width="60" height="60"/><rect class="d" x="400" y="400" width="60" height="60"/><rect class="d" x="340" y="460" width="60" height="60"/><rect class="d" x="460" y="460" width="60" height="60"/><rect class="d" x="280" y="520" width="60" height="60"/><rect class="d" x="400" y="520" width="60" height="60"/></svg>